<svg xmlns="http://www.w3.org/2000/svg" xmlns:xlink="http://www.w3.org/1999/xlink" viewBox="0 0 196.9 224.1"><defs><style>.a{stroke:#fff;stroke-miterlimit:10;fill:url(#a);}.b{fill:url(#b);}</style><linearGradient id="a" x1="0.5" y1="112.04" x2="196.36" y2="112.04" gradientUnits="userSpaceOnUse"><stop offset="0"/><stop offset="0.58" stop-color="#202020"/><stop offset="1" stop-color="#333"/></linearGradient><linearGradient id="b" x1="73.78" y1="36.88" x2="118.84" y2="174.1" gradientUnits="userSpaceOnUse"><stop offset="0.36" stop-color="#fff"/><stop offset="0.5" stop-color="#f8f8f8"/><stop offset="0.7" stop-color="#e4e4e4"/><stop offset="0.89" stop-color="#ccc"/></linearGradient></defs><title>darkLogo</title><polygon class="a" points="98.4 223.5 137.3 200.3 137.3 151.2 177 151.2 196.4 140.5 196.4 83.7 177.2 72.5 137.7 72.5 137.5 24.3 98.9 0.6 59.8 23.7 59.8 72.5 19.1 72.3 0.5 83.5 0.5 139.8 20 151.3 59.4 151.8 60 200.2 98.4 223.5"/><polygon class="b" points="98.4 195.1 112.8 186.7 112 125.6 170.1 125.6 170.1 98.2 112.3 98.2 112.3 38.2 98.4 30.1 85.1 38 85.1 98.3 26.8 98.1 26.8 125.6 85.3 125.9 85.5 185.6 98.4 195.1"/></svg>