<svg xmlns="http://www.w3.org/2000/svg" xmlns:xlink="http://www.w3.org/1999/xlink" viewBox="0 0 195.9 222.9"><defs><style>.a{fill:url(#a);}.b{fill:url(#b);}</style><linearGradient id="a" y1="111.46" x2="195.86" y2="111.46" gradientUnits="userSpaceOnUse"><stop offset="0"/><stop offset="0.58" stop-color="#202020"/><stop offset="1" stop-color="#333"/></linearGradient><linearGradient id="b" x1="73.28" y1="36.3" x2="118.34" y2="173.52" gradientUnits="userSpaceOnUse"><stop offset="0.36" stop-color="#fff"/><stop offset="0.5" stop-color="#f8f8f8"/><stop offset="0.7" stop-color="#e4e4e4"/><stop offset="0.89" stop-color="#ccc"/></linearGradient></defs><title>whiteLogo</title><polygon class="a" points="97.9 222.9 136.8 199.7 136.8 150.6 176.5 150.6 195.9 139.9 195.9 83.1 176.7 71.9 137.2 71.9 137 23.7 98.4 0 59.3 23.1 59.3 71.9 18.6 71.7 0 82.9 0 139.2 19.5 150.7 58.9 151.2 59.5 199.6 97.9 222.9"/><polygon class="b" points="97.9 194.5 112.3 186.1 111.5 125 169.6 125 169.6 97.6 111.8 97.6 111.8 37.7 97.9 29.5 84.6 37.4 84.6 97.7 26.3 97.5 26.3 125 84.8 125.3 85 185 97.9 194.5"/></svg>